<svg xmlns="http://www.w3.org/2000/svg" version="1.1" xmlns:xlink="http://www.w3.org/1999/xlink" xmlns:svgjs="http://svgjs.dev/svgjs" width="1000" height="999" viewBox="0 0 1000 999"><g transform="matrix(1,0,0,1,-0.215743440233382,-0.21552769679306039)"><svg viewBox="0 0 343 343" data-background-color="#ffffff" preserveAspectRatio="xMidYMid meet" height="999" width="1000" xmlns="http://www.w3.org/2000/svg" xmlns:xlink="http://www.w3.org/1999/xlink"><g id="tight-bounds" transform="matrix(1,0,0,1,0.0740000000000407,0.07400000000001228)"><svg viewBox="0 0 342.85155851775386 342.85155851775386" height="342.85155851775386" width="342.85155851775386"><g><svg></svg></g><g><svg viewBox="0 0 342.85155851775386 342.85155851775386" height="342.85155851775386" width="342.85155851775386"><g><path d="M0 171.426c0-94.676 76.75-171.426 171.426-171.426 94.676 0 171.426 76.75 171.426 171.426 0 94.676-76.75 171.426-171.426 171.426-94.676 0-171.426-76.75-171.426-171.426zM171.426 326.809c85.816 0 155.383-69.568 155.383-155.383 0-85.816-69.568-155.383-155.383-155.384-85.816 0-155.383 69.568-155.384 155.384 0 85.816 69.568 155.383 155.384 155.383z" data-fill-palette-color="tertiary" fill="#0080ff" stroke="transparent"></path><ellipse rx="164.56874808852186" ry="164.56874808852186" cx="171.42577925887693" cy="171.42577925887693" fill="#0080ff" stroke="transparent" stroke-width="0" fill-opacity="1" data-fill-palette-color="tertiary"></ellipse></g><g transform="matrix(1,0,0,1,64.84655864529837,82.48085639558569)"><svg viewBox="0 0 213.1584412271571 177.88984572658248" height="177.88984572658248" width="213.1584412271571"><g><svg viewBox="0 0 213.1584412271571 177.88984572658248" height="177.88984572658248" width="213.1584412271571"><g><svg viewBox="0 0 213.1584412271571 177.88984572658248" height="177.88984572658248" width="213.1584412271571"><g><svg viewBox="0 0 213.1584412271571 177.88984572658248" height="177.88984572658248" width="213.1584412271571"><g id="textblocktransform"><svg viewBox="0 0 213.1584412271571 177.88984572658248" height="177.88984572658248" width="213.1584412271571" id="textblock"><g><svg viewBox="0 0 213.1584412271571 177.88984572658248" height="177.88984572658248" width="213.1584412271571"><g transform="matrix(1,0,0,1,0,0)"><svg width="213.1584412271571" viewBox="5 -28.75 34.45000076293945 28.75" height="177.88984572658248" data-palette-color="#ffffff"><path d="M5 0L5-28.75 10.7-28.75 21-19.05 21-11.5 11.3-20.85 11.3 0 5 0ZM23.25-17.2L33.15-8.1 33.15-28.75 39.45-28.75 39.45 0 33.55 0 23.25-9.9 23.25-17.2Z" opacity="1" transform="matrix(1,0,0,1,0,0)" fill="#ffffff" class="wordmark-text-0" data-fill-palette-color="quaternary" id="text-0"></path></svg></g></svg></g></svg></g></svg></g><g></g></svg></g></svg></g></svg></g></svg></g><defs></defs></svg><rect width="342.85155851775386" height="342.85155851775386" fill="none" stroke="none" visibility="hidden"></rect></g></svg></g></svg>